<?xml version="1.0" encoding="UTF-8" standalone="no"?>
<!DOCTYPE svg PUBLIC "-//W3C//DTD SVG 1.1//EN" "http://www.w3.org/Graphics/SVG/1.1/DTD/svg11.dtd">
<!-- Created with Vectornator (http://vectornator.io/) -->
<svg height="100%" stroke-miterlimit="10" style="fill-rule:nonzero;clip-rule:evenodd;stroke-linecap:round;stroke-linejoin:round;" version="1.1" viewBox="0 0 2160 3840" width="100%" xml:space="preserve" xmlns="http://www.w3.org/2000/svg" xmlns:vectornator="http://vectornator.io" xmlns:xlink="http://www.w3.org/1999/xlink">
<defs/>
<g id="hokkaido" vectornator:layerName="hokkaido">
<path d="M1496.02 998.14C1487.83 995.792 1462.36 997.591 1458.25 1005.65C1450.69 1020.48 1449.43 1055.23 1458.22 1069.49C1464.38 1079.49 1479.64 1075.32 1489.21 1076.2C1501.26 1077.3 1514.85 1076.19 1526.31 1079.59C1553.65 1087.7 1588.86 1117.19 1550.64 1137.92C1532.83 1147.57 1503.75 1133.55 1489.99 1152.37C1481.32 1164.21 1485.22 1183.33 1483.98 1196.96C1483.8 1198.94 1485.5 1210.92 1483.91 1211.79C1471.3 1218.63 1429.51 1193.3 1424.79 1181.23C1415.76 1158.11 1459.08 1152.21 1452.15 1128.92C1449.72 1120.77 1442.15 1115.93 1436.46 1110.07C1413.88 1086.84 1385.43 1069.05 1395.27 1031.5C1402.31 1004.63 1424.49 977.626 1445.66 960.002C1453.67 953.329 1465.98 941.505 1469.57 931.232C1478.28 906.312 1436.51 904.393 1466.57 879.365C1488.94 860.742 1564.6 899.615 1578.69 859.301C1585.72 839.174 1574.63 816.045 1580 795.575C1585.41 774.904 1603.24 761.636 1610.02 742.213C1613.81 731.383 1610.73 718.472 1614.46 707.793C1618 697.659 1618.04 685.142 1617.5 674.535C1616.39 652.772 1621.86 631.114 1619.57 609.589C1617.69 591.978 1586.11 565.143 1574.59 551.305C1559.74 533.462 1585.5 512.337 1589.79 497.878C1592.89 487.454 1592.26 477.327 1600.21 468.519C1612.07 455.39 1657.09 499.109 1664.1 510.473C1670.28 520.501 1678.5 524.046 1686.65 531.881C1696.7 541.556 1704.13 553.906 1714.71 563.468C1724.89 572.661 1728.79 587.611 1738.77 596.622C1771.17 625.893 1801.36 663.755 1841.06 684.006C1868.32 697.909 1961.9 695.196 1990.26 681.52C2013.65 670.245 2024.49 647.116 2043.2 631.541C2047.9 627.624 2058.18 620.432 2064.19 627.656C2069.28 633.768 2054.4 642.113 2051.8 646.312C2048.39 651.809 2036.83 661.762 2033.39 667.926C2025 682.924 2025.89 699.603 2027.69 716.541C2029.97 737.933 2047.53 755.208 2064.19 770.741C2075.01 780.825 2086.69 792.93 2099.08 795.575C2111.76 798.279 2108.32 797.43 2117.6 798.279C2118.76 798.384 2120.21 797.941 2120.04 799.792C2119.88 801.598 2077.78 834.389 2071.94 839.249C2065.51 844.601 2054.07 860.222 2044.49 857.377C2036.78 855.091 2037.37 844.247 2028.21 844.926C2010.91 846.208 2006.36 870.224 1991.51 872.527C1984.27 873.65 1972.33 860.381 1965.12 857.861C1958.64 855.598 1932.32 882.272 1926.9 887.904C1908.12 907.434 1889.98 926.093 1871.93 946.08C1862.87 956.103 1846.62 966.419 1843.01 980.197C1837.94 999.536 1836.88 1026.04 1838.97 1045.61C1839.52 1050.8 1839.25 1063.53 1833.38 1064.44C1813.21 1067.57 1791.99 1067.52 1774.13 1056.45C1766.28 1051.59 1753.33 1022.95 1745.78 1013.87C1739.44 1006.26 1692.1 977.541 1683.52 975.293C1666.11 970.731 1608.99 967.252 1595.02 976.878C1580.11 987.159 1557.53 1022.26 1540.98 1024.82C1523.73 1027.5 1513.11 1003.04 1496.02 998.14Z" fill="#caff81" fill-rule="nonzero" opacity="1" stroke="#000000" stroke-linecap="round" stroke-linejoin="round" stroke-width="5.07055" vectornator:layerName="hokkaido"/>
</g>
<g id="miyazaki" vectornator:layerName="miyazaki">
<path d="M332.997 2982.01C336.061 2978.16 338.582 2977.94 341.016 2975.08C364.271 2947.69 316 2944.98 323.799 2923.13C326.292 2916.15 333.318 2911.17 337.952 2905.72C346.641 2895.49 359.969 2879.12 373.352 2874.71C391.287 2868.8 413.499 2869.09 432.234 2868.72C441.645 2868.53 438.477 2887.18 436.956 2891.92C434.587 2899.3 426.258 2904.59 421.696 2910.56C412.738 2922.28 398.162 2936.86 398.105 2952.81C398.056 2966.42 396.071 2979.89 396.337 2993.39C396.851 3019.51 398.812 3045.81 398.718 3072.16C398.678 3083.35 400.461 3107.29 390.124 3114.98C386.155 3117.94 381.767 3111.97 379.527 3109.72C370.492 3100.62 369.363 3093.35 367.52 3080.81C367.094 3077.91 366.669 3071.09 364.608 3069.02C359.873 3064.25 356.264 3058.54 350.765 3054.23C340.02 3045.81 328.862 3038.77 319.722 3028.57C314.706 3022.97 307.877 3017.43 307.714 3009.18C307.559 3001.3 315.931 2995.74 321.024 2991.17C324.518 2988.04 329.915 2985.87 332.997 2982.01Z" fill="none" opacity="1" stroke="#000000" stroke-linecap="round" stroke-linejoin="round" stroke-width="5.07055" vectornator:layerName="miyazaki"/>
</g>
<g id="kumamoto" vectornator:layerName="kumamoto">
<path d="M253.019 2849.07C248.623 2854.97 252.037 2867.1 251.384 2874.38C249.407 2896.42 253.492 2918.92 250.569 2940.99C248.801 2954.33 244.138 2960.96 236.557 2971.76C234.853 2974.19 225.33 2980.56 226.123 2983.91C226.221 2984.32 236.339 2983.15 237.414 2983.05C245.206 2982.35 252.625 2983.17 260.402 2983.06C274.556 2982.87 278.571 2996.54 291.571 2997.71C300.042 2998.46 320.727 2973.77 325.631 2966.78C337.101 2950.44 305.663 2942.78 308.186 2923.73C310.135 2909.01 326.958 2892.83 338.554 2884.36C343.889 2880.46 354.158 2872.75 354.643 2865.43C355.323 2855.18 341.108 2848.91 340.089 2837.66C339.509 2831.27 339.034 2824.28 339.882 2817.87C340.013 2816.89 342.142 2809.28 340.277 2809.31C339.022 2809.32 326.174 2827.79 317.495 2829.09C304.283 2831.08 298.962 2816.89 289.415 2816.26C279.309 2815.59 258.706 2841.43 253.019 2849.07Z" fill="#684f2e" fill-rule="nonzero" opacity="1" stroke="#000000" stroke-linecap="round" stroke-linejoin="round" stroke-width="5.07055" vectornator:layerName="kumamoto"/>
</g>
<g id="oita" vectornator:layerName="oita">
<path d="M344.854 2738.8C337.053 2739.65 328.732 2754.39 323.163 2759.97C309.481 2773.69 277.051 2788.72 304.443 2808.15C307.373 2810.23 309.72 2813.68 313.327 2814.77C320.906 2817.08 335.284 2791.55 346.429 2799.46C354.187 2804.96 349.59 2832.64 353.857 2841.83C363.693 2863.02 398.436 2855.96 416.736 2857.32C423.285 2857.81 431.982 2859.03 438.423 2857.85C443.67 2856.88 465.321 2837.38 463.598 2831.66C462.311 2827.39 454.072 2823.93 450.981 2820.65C442.394 2811.55 433.534 2799.54 423.432 2792.1C417.548 2787.77 404.916 2791.35 400.806 2784.45C394.643 2774.12 399.346 2739.94 392.026 2734.74C384.706 2729.55 355.255 2737.66 344.854 2738.8Z" fill="none" opacity="1" stroke="#000000" stroke-linecap="round" stroke-linejoin="round" stroke-width="5.07055" vectornator:layerName="oita"/>
</g>
<g id="nagasaki" vectornator:layerName="nagasaki">
<path d="M123.446 2786.62C114.734 2775.59 96.4742 2791.34 95.1293 2802.81C94.0091 2812.36 127.879 2832.06 128.144 2842.57C128.454 2854.89 102.98 2865.66 107.355 2875.36C110.302 2881.89 143.959 2910.95 148.723 2908.53C156.584 2904.52 168.647 2885.17 174.198 2885.21C184.869 2885.27 200.554 2918.43 215.882 2898.57C219.91 2893.35 229.595 2882.23 226.248 2874.81C223.548 2868.83 192.724 2873.52 186.287 2867.67C178.257 2860.39 183.539 2847.33 175.98 2841.49C157.191 2827 138.247 2805.35 123.446 2786.62Z" fill="#ffe903" fill-rule="nonzero" opacity="1" stroke="#000000" stroke-linecap="round" stroke-linejoin="round" stroke-width="5.07055" vectornator:layerName="nagasaki"/>
</g>
<g id="fukuoka" vectornator:layerName="fukuoka">
<path d="M276.787 2669.65C276.751 2667.69 266.702 2670.57 265.525 2671.27C255.92 2677 247.551 2686.36 240.468 2694.94C227.821 2710.26 212.065 2722.56 199.082 2737.26C194.244 2742.74 186.627 2746.97 184.223 2754.21C180.61 2765.09 193.174 2765.59 201.2 2765.81C210.54 2766.06 251.253 2763.14 256.434 2770.96C260.78 2777.51 254.233 2785.64 249.908 2790.13C237.236 2803.28 217.058 2809.99 237.196 2827.77C239.284 2829.62 241.883 2833.47 244.637 2834.17C247.199 2834.81 255.143 2827.63 257.193 2826.17C264.196 2821.18 275.278 2812.73 277.958 2804.17C278.72 2801.73 277.123 2798.43 276.573 2796.08C274.927 2789.04 277.444 2782.55 281.869 2777.19C291.668 2765.32 310.22 2751.74 322.681 2742.03C329.223 2736.93 335.834 2731 331.727 2722.52C329.414 2717.75 325.891 2714.86 322.681 2711.2C317.246 2705.02 310.23 2699.96 304.584 2693.84C298.466 2687.21 285.021 2673.58 276.787 2669.65Z" fill="#38944f" fill-rule="nonzero" opacity="1" stroke="#000000" stroke-linecap="round" stroke-linejoin="round" stroke-width="5.07055" vectornator:layerName="fukuoka"/>
</g>
<g id="saga" vectornator:layerName="saga">
<path d="M187.772 2781.12C199.398 2784.56 213.944 2782.71 226.002 2781.92C226.679 2781.87 237.937 2780.97 237.985 2781.08C238.22 2781.59 232.886 2785.67 232.549 2785.93C226.307 2790.82 220.642 2796.39 214.564 2801.49C207.694 2807.27 192.917 2828.8 184.152 2826.63C180.114 2825.63 175.182 2817.62 172.477 2814.75C165.189 2806.99 145.908 2792.72 143.145 2782.64C140.368 2772.51 145.342 2757.36 158.721 2760.95C171.172 2764.29 176.367 2777.76 187.772 2781.12Z" fill="none" opacity="1" stroke="#000000" stroke-linecap="round" stroke-linejoin="round" stroke-width="5.07055" vectornator:layerName="saga"/>
</g>
<g id="shimane" vectornator:layerName="shimane">
<path d="M605.881 2385.45C604.536 2382.54 607.126 2369.05 605.226 2367.61C591.572 2357.27 565.239 2376.82 555.001 2384.71C532.041 2402.39 514.338 2428.37 494.055 2449.18C467.215 2476.72 434.154 2498.15 410.86 2528.9C399.589 2543.79 396.709 2567.16 410.267 2582.77C417.318 2590.89 430.69 2585.47 435.857 2578.17C450.852 2556.99 453.463 2525.67 477.751 2511.38C494.963 2501.25 514.76 2502.49 532.027 2493.58C547.174 2485.77 551.598 2465.31 566.408 2457.66C571.964 2454.8 605.124 2454.07 605.639 2450.11C605.937 2447.82 594.771 2439.13 598.941 2427.75C602.358 2418.42 630.38 2409.1 625.675 2395.56C623.896 2390.44 609.111 2392.44 605.881 2385.45Z" fill="none" opacity="1" stroke="#000000" stroke-linecap="round" stroke-linejoin="round" stroke-width="5.07055" vectornator:layerName="shimane"/>
</g>
<g id="okinawa" vectornator:layerName="okinawa">
<path d="M109.131 3225.6C105.919 3226.42 70.174 3257.06 68.402 3262.37C65.4957 3271.08 68.2269 3280.4 65.3302 3289.08C62.956 3296.19 55.8121 3302.65 51.247 3308.24C45.7422 3314.98 45.3067 3323.06 44.3702 3331.21C43.4141 3339.52 42.984 3373.88 53.5193 3376.47C63.1338 3378.84 75.3969 3368.8 76.4935 3359.27C79.1607 3336.08 74.2259 3309.53 81.598 3287.43C84.8812 3277.59 95.2408 3273 101.778 3265.81C108.003 3258.97 113.998 3250.79 117.209 3242.11C119.56 3235.75 118.086 3223.31 109.131 3225.6Z" fill="#ffd987" fill-rule="nonzero" opacity="1" stroke="#000000" stroke-linecap="round" stroke-linejoin="round" stroke-width="5.07055" vectornator:layerName="okinawa"/>
</g>
<g id="kochi" vectornator:layerName="kochi">
<path d="M650.685 2666.47C659.463 2663 672.953 2665.34 682.204 2665.65C701.959 2666.31 724.693 2662.17 743.488 2667.18C750.787 2669.13 760.081 2679.33 765.851 2684.07C769.353 2686.94 789.469 2706.43 787.693 2710.6C785.42 2715.94 764.784 2739.5 758.922 2739.13C750.77 2738.62 743.107 2722.89 736.614 2718.62C714.567 2704.11 688.107 2709.86 668.361 2726.16C657.378 2735.23 638.284 2751.04 634.52 2765.18C632.286 2773.56 639.198 2784.53 636.028 2791.98C634.153 2796.39 629.905 2798.04 626.395 2800.8C617.707 2807.64 606.44 2817.68 601.435 2827.84C598.281 2834.24 600.934 2842.54 599.13 2849.31C596.583 2858.87 585.134 2868.62 575.997 2872.06C569.577 2874.47 558.43 2859.5 556.68 2854.84C550.463 2838.32 564.769 2841.63 566.068 2830.71C567.011 2822.79 562.176 2815.51 563.116 2807.62C564.99 2791.87 592.058 2786.15 597.822 2771.33C604.137 2755.1 595.663 2737.11 598.178 2720.44C600.007 2708.31 639.985 2670.71 650.685 2666.47Z" fill="none" opacity="1" stroke="#000000" stroke-linecap="round" stroke-linejoin="round" stroke-width="5.07055" vectornator:layerName="kochi"/>
</g>
<g id="ehime" vectornator:layerName="ehime">
<path d="M612.577 2642.89C622.642 2651.73 646.811 2648.34 658.805 2643.26C664.499 2640.84 678.215 2631.35 684.52 2633.03C687.739 2633.89 692.321 2646.49 690.405 2649.4C687.94 2653.14 662.803 2650.9 657.008 2652.56C649.603 2654.69 642.834 2661.15 636.905 2665.65C621.63 2677.25 607.768 2689.31 592.974 2701.52C575.231 2716.17 589.812 2755.51 580.465 2772.4C575.024 2782.23 551.39 2791.81 548.916 2801.1C546.187 2811.35 560.997 2831.46 545.679 2834.61C542.363 2835.3 538.85 2836.44 535.647 2834.67C503.025 2816.62 542.665 2805.48 540.681 2791.85C538.7 2778.24 525.958 2767.03 517.747 2756.6C516.335 2754.81 509.529 2749.89 509.399 2747.78C509.243 2745.23 518.813 2738.91 520.604 2737.33C531.12 2728.06 542.885 2719.42 551.416 2707.98C561.734 2694.15 554.703 2678.48 560.842 2664.05C564.005 2656.62 569.259 2653.38 575.065 2648.26C588.667 2636.27 593.996 2626.57 612.577 2642.89Z" fill="none" opacity="1" stroke="#000000" stroke-linecap="round" stroke-linejoin="round" stroke-width="5.07055" vectornator:layerName="ehime"/>
</g>
<g id="tokushima" vectornator:layerName="tokushima">
<path d="M744.222 2614.19C733.449 2613.75 706.255 2635.89 706.255 2646.59C706.255 2648.17 721.71 2646.38 723.507 2646.59C733.885 2647.85 746.995 2650.54 756.378 2654.99C763.839 2658.52 772.296 2666.32 777.709 2672.59C782.763 2678.45 785.49 2689.68 792.978 2693.23C797.919 2695.57 805.282 2692.99 809.181 2689.5C816.275 2683.15 820.265 2679.23 826.901 2672.59C834.314 2665.18 849.376 2653.72 851.732 2641.94C854.557 2627.82 837.356 2593.15 821.661 2592.28C809.591 2591.61 804.169 2594.98 799.492 2601.46C796.283 2605.91 793.425 2614.19 789.012 2614.19C777.998 2614.19 755.707 2614.67 744.222 2614.19Z" fill="none" opacity="1" stroke="#000000" stroke-linecap="round" stroke-linejoin="round" stroke-width="5.07055" vectornator:layerName="tokushima"/>
</g>
<g id="mie" vectornator:layerName="mie">
<path d="M1056.68 2602.53C1051.98 2609.48 1033.63 2623.78 1032.67 2632.08C1031.51 2642.2 1047.96 2648.68 1056.1 2645.31C1066.15 2641.15 1084.31 2620.57 1084.36 2608.88C1084.43 2592.04 1079.14 2567.01 1097.9 2556.63C1117.04 2546.04 1169.88 2549.56 1169.04 2518.54C1168.88 2512.63 1154.94 2508.21 1150.76 2505C1134.78 2492.72 1113.01 2500.55 1105.05 2473.87C1098.32 2451.32 1159.57 2428.99 1122.87 2407.98C1119.41 2406 1116.58 2401.85 1112.21 2401.34C1069.94 2396.46 1101.79 2437.31 1083.48 2457.55C1077.03 2464.69 1045.44 2455.41 1040.8 2473.07C1039.47 2478.13 1063.1 2493.46 1061.77 2504.96C1060.36 2517.24 1057.18 2531.84 1057.52 2544.45C1057.92 2559.35 1064.84 2574.78 1062.99 2590.78C1062.42 2595.75 1059.07 2599 1056.68 2602.53Z" fill="none" opacity="1" stroke="#000000" stroke-linecap="round" stroke-linejoin="round" stroke-width="5.07055" vectornator:layerName="mie"/>
</g>
<g id="tottori" vectornator:layerName="tottori">
<path d="M732.051 2372.16C742.605 2362.94 762.358 2335.57 777.822 2343.93C784.446 2347.51 790.982 2354.4 796.275 2359.55C802.426 2365.53 821.485 2377.6 815.507 2388.66C809.949 2398.93 792.087 2400.81 782.954 2400.94C765.498 2401.18 746.932 2400.29 729.485 2400.94C715.006 2401.48 700.556 2400.74 686.019 2400.94C665.936 2401.22 655.026 2417.17 641.854 2428.71C636.445 2433.45 628.564 2444.76 620.503 2444.87C610.225 2445.02 612.606 2434.34 615.543 2428.48C619.339 2420.91 627.536 2416.9 632.944 2410.7C643.554 2398.53 641.739 2382.66 657.97 2376.25C681.89 2366.8 712.71 2389.05 732.051 2372.16Z" fill="none" opacity="1" stroke="#000000" stroke-linecap="round" stroke-linejoin="round" stroke-width="5.07055" vectornator:layerName="tottori"/>
</g>
<g id="osaka" vectornator:layerName="osaka">
<path d="M955.127 2537.82C941.952 2536.22 950.363 2494 950.363 2483.67C950.363 2473.04 947.893 2459.98 950.865 2449.58C951.103 2448.74 951.55 2447.61 952.62 2447.82C963.657 2450.03 987.348 2472.81 988.97 2484.17C990.065 2491.83 988.446 2499.83 989.722 2507.49C990.322 2511.08 991.157 2534.74 988.72 2536.57C986.169 2538.48 959.551 2538.36 955.127 2537.82Z" fill="#0162ff" fill-rule="nonzero" opacity="1" stroke="#000000" stroke-linecap="round" stroke-linejoin="round" stroke-width="5.07055" vectornator:layerName="osaka"/>
</g>
<g id="nara" vectornator:layerName="nara">
<path d="M1005.16 2484.33C1001.83 2490.65 1005.46 2503.05 1005.07 2510.31C1003.91 2532.46 1004.84 2554.71 1003.69 2576.55C1003.41 2581.82 994.669 2587.87 991.266 2591.29C985.38 2597.21 984.177 2613.25 986.878 2620.83C989.142 2627.19 999.103 2626.34 1004.03 2625.62C1017.5 2623.65 1035.34 2614.11 1041.94 2602C1051.22 2584.96 1046.95 2558.84 1046.57 2540.22C1046.31 2527.61 1050.41 2515.29 1045.37 2503.03C1040.13 2490.27 1024.95 2478.85 1011.57 2482.34C1008.99 2483.01 1006.55 2481.71 1005.16 2484.33Z" fill="#896a34" fill-rule="nonzero" opacity="1" stroke="#000000" stroke-linecap="round" stroke-linejoin="round" stroke-width="5.07055" vectornator:layerName="nara"/>
</g>
<g id="yamaguchi" vectornator:layerName="yamaguchi">
<path d="M388.644 2554.5C387.777 2553.53 383.38 2562.68 382.499 2563.83C376.782 2571.28 371.262 2580.03 362.553 2584.44C357.312 2587.09 352.464 2590.14 346.618 2591.53C333.868 2594.57 308.376 2590.72 301.257 2604.2C298.108 2610.15 300.886 2617.11 300.944 2623.35C300.997 2629.1 301.134 2635.48 304.782 2640.28C311.309 2648.88 317.012 2645.81 325.724 2648.99C334.153 2652.08 334.225 2664.7 344.945 2665.83C353.202 2666.71 359.973 2657.16 365.903 2652.78C376.334 2645.07 389.446 2641.01 402.367 2641.18C421.535 2641.42 434.883 2652.23 447.774 2664.99C449.46 2666.66 459.885 2677.18 463.323 2675.05C466.567 2673.03 462.187 2665.12 462.189 2662.32C462.195 2655.18 466.909 2649.3 471.547 2644.31C474.33 2641.32 490.671 2622.04 489.957 2618.38C488.855 2612.74 469.125 2591.09 464.237 2587.2C461.453 2584.99 457.997 2579.72 453.904 2580.19C448.955 2580.75 445.765 2588.47 443.11 2591.93C436.816 2600.14 428.441 2601.63 418.875 2599.86C402.388 2596.82 392.398 2577.55 389.979 2562.62C389.512 2559.73 390.716 2556.84 388.644 2554.5Z" fill="none" opacity="1" stroke="#000000" stroke-linecap="round" stroke-linejoin="round" stroke-width="5.07055" vectornator:layerName="yamaguchi"/>
</g>
<g id="hiroshima" vectornator:layerName="hiroshima">
<path d="M503.805 2516.65C500.03 2517.69 459.349 2556.99 459.981 2560.91C461.828 2572.38 472.54 2579.33 480.534 2586.46C487.87 2593.01 501.368 2580.46 510.689 2583.53C525.151 2588.3 530.698 2611.26 548.606 2608.37C570.999 2604.77 577.792 2574.64 597.427 2566.51C611.789 2560.57 653.957 2572.19 656.166 2550.88C656.414 2548.48 624.976 2522.3 620.803 2513.52C615.697 2502.77 622.114 2468.54 612.751 2465.03C608.085 2463.27 602.951 2465.17 598.226 2465.44C591.694 2465.81 582.838 2463.64 576.604 2466.6C563.76 2472.7 559.902 2490.51 549.565 2499.34C536.237 2510.71 519.892 2512.22 503.805 2516.65Z" fill="#ffae01" fill-rule="nonzero" opacity="1" stroke="#000000" stroke-linecap="round" stroke-linejoin="round" stroke-width="5.07055" vectornator:layerName="hiroshima"/>
</g>
<g id="kagawa" vectornator:layerName="kagawa">
<path d="M734.294 2585.1C728.666 2589.15 705.664 2608.05 700.895 2614.19C699.411 2616.09 692.84 2624.09 696.93 2626.43C703.229 2630.03 728.607 2605.35 740.062 2603.23C754.455 2600.57 774.75 2608.17 787.04 2597.17C799.584 2585.95 789.615 2580.72 777.483 2578.29C760.605 2574.91 749.158 2574.42 734.294 2585.1Z" fill="none" opacity="1" stroke="#000000" stroke-linecap="round" stroke-linejoin="round" stroke-width="5.07055" vectornator:layerName="kagawa"/>
</g>
<g id="okayama" vectornator:layerName="okayama">
<path d="M788.924 2413.49C790.088 2411.76 779.314 2411.39 776.914 2411.36C764.397 2411.19 751.69 2411.11 739.242 2412.12C719.454 2413.73 693.072 2405.11 674.983 2414.61C665.209 2419.74 657.135 2431.68 649.414 2439.53C644.675 2444.34 636.638 2448.63 633.487 2454.55C628.084 2464.69 630.128 2471.79 631.145 2482.52C631.906 2490.55 628.535 2500.37 631.607 2508.28C633.346 2512.76 638.713 2514.55 642.029 2517.82C651.347 2526.99 658.026 2539 669.838 2545.51C678.3 2550.17 727.75 2547.02 736.499 2542.79C745.484 2538.45 753.382 2528 759.948 2520.76C764.806 2515.41 771.21 2512.38 776.2 2507.31C778.677 2504.8 787.82 2499.71 787.658 2495.67C787.362 2488.28 778.164 2479.33 775.457 2472.36C766.83 2450.14 776.74 2431.58 788.924 2413.49Z" fill="none" opacity="1" stroke="#000000" stroke-linecap="round" stroke-linejoin="round" stroke-width="5.07055" vectornator:layerName="okayama"/>
</g>
<g id="kagoshima" vectornator:layerName="kagoshima">
<path d="M226.173 3114.37C237.658 3094.36 228.035 3084.89 215.094 3068.71C212.065 3064.93 207.16 3062.99 204.947 3058.57C196.706 3042.08 199.246 3024.41 207.225 3008.45C215.555 2991.79 235.076 2998.31 249.884 2998.31C268.77 2998.31 283.832 3005.96 296.891 3019.01C301.982 3024.11 305.245 3030.89 310.351 3035.99C318.213 3043.86 326.732 3049.27 334.165 3057.95C340.483 3065.32 354.202 3071.93 355.908 3082.17C358.642 3098.58 345.284 3109.06 342.862 3123.59C341.915 3129.27 341.077 3137.87 337.271 3142.43C332.078 3148.67 325.321 3154.02 320.498 3160.45C315.436 3167.2 309.552 3173.05 303.517 3179.09C303.258 3179.35 300.47 3181.63 300.411 3181.57C299.145 3180.31 299.79 3161.74 299.79 3159.21C299.79 3137.29 301.052 3116.29 298.34 3094.6C297.544 3088.23 298.075 3072.29 290.678 3069.33C273.776 3062.57 245.762 3089.3 243.05 3105.57C241.883 3112.58 258.237 3127.08 261.48 3135.19C262.703 3138.24 264.785 3145.5 261.273 3147.61C251.264 3153.62 233.798 3149.68 222.756 3149.68C218.926 3149.68 211.495 3148.74 210.331 3144.09C207.636 3133.31 221.077 3123.25 226.173 3114.37Z" fill="none" opacity="1" stroke="#000000" stroke-linecap="round" stroke-linejoin="round" stroke-width="5.07055" vectornator:layerName="kagoshima"/>
</g>
<g id="kyoto" vectornator:layerName="kyoto">
<path d="M959.444 2373.52C964.148 2376.12 975.066 2371.27 979.228 2375.06C988.625 2383.6 982.002 2424.05 987.454 2438.78C990.598 2447.26 995.832 2456.48 1003.51 2461.68C1004.62 2462.44 1014.57 2468.01 1014.49 2468.57C1014.33 2469.79 1010.59 2469.24 1009.93 2469.11C994.201 2466.07 985.941 2453.4 973.673 2445.08C962.869 2437.76 949.612 2437.43 939.201 2430.38C927.184 2422.23 922.69 2409.57 912.163 2400.58C906.61 2395.84 882.74 2393.08 881.781 2388.09C880.485 2381.33 890.223 2375.4 890.28 2368.13C890.394 2353.56 869.256 2348.85 868.916 2334.92C868.757 2328.4 893.406 2307.97 899.327 2311.09C905.148 2314.16 900.609 2339.15 905.403 2346.24C911.891 2355.84 926.907 2347.68 934.293 2352.69C943.264 2358.78 949.982 2368.3 959.444 2373.52Z" fill="#ff4433" fill-rule="nonzero" opacity="1" stroke="#000000" stroke-linecap="round" stroke-linejoin="round" stroke-width="5.07055" vectornator:layerName="kyoto"/>
</g>
<g id="gifu" vectornator:layerName="gifu">
<path d="M1063.51 2318.62C1058.51 2309.17 1065.09 2302.37 1073.9 2299.64C1092 2294.04 1116.35 2299.35 1126.44 2277.34C1131.35 2266.62 1129.2 2253.05 1121.48 2243.17C1119.41 2240.51 1115.15 2238.17 1114.5 2234.48C1112.72 2224.49 1125.13 2218.35 1126.79 2209.09C1127.64 2204.32 1124.82 2197.11 1126.9 2192.58C1128.13 2189.9 1135.74 2194.46 1137.91 2195.11C1142.97 2196.61 1150.43 2195.12 1155.25 2193.62C1161.36 2191.73 1163.41 2185.18 1168 2181.59C1176.37 2175.06 1209.72 2167.22 1217.33 2176.35C1219.98 2179.53 1219.27 2185.59 1220.45 2189.4C1223.36 2198.79 1226.43 2210.56 1221.95 2220.34C1217.41 2230.24 1205.89 2243.09 1207.29 2254.96C1209.43 2273.09 1219.64 2283.96 1230.17 2298.11C1240.42 2311.89 1245.59 2344.14 1238.3 2360.05C1231.87 2374.09 1182.11 2346.87 1170.86 2350.75C1156.78 2355.62 1140.69 2365.38 1129.06 2374.03C1120.65 2380.29 1113.22 2392.86 1100.87 2391.05C1088.11 2389.17 1096.32 2362.32 1093.85 2355.16C1087.89 2337.9 1071.24 2333.23 1063.51 2318.62Z" fill="none" opacity="1" stroke="#000000" stroke-linecap="round" stroke-linejoin="round" stroke-width="5.07055" vectornator:layerName="gifu"/>
</g>
<g id="akita" vectornator:layerName="akita">
<path d="M1461.38 1470.43C1463.06 1469.17 1464.04 1467.2 1464.04 1465.1L1464.04 1415.09C1464.04 1411.42 1467.02 1408.44 1470.7 1408.44L1551.18 1408.44C1552.18 1408.44 1553.15 1408.22 1554.05 1407.79L1570.13 1400.12C1572.56 1398.96 1575.46 1399.39 1577.46 1401.2L1589.3 1411.92C1591.9 1414.28 1592.22 1418.27 1590.03 1421.01L1570.77 1445.1C1569.83 1446.28 1569.31 1447.75 1569.31 1449.26L1569.31 1581.78C1569.31 1583.38 1569.89 1584.93 1570.95 1586.15L1602.55 1622.46C1603.6 1623.67 1604.18 1625.22 1604.18 1626.83L1604.18 1643.84C1604.18 1646.17 1602.96 1648.33 1600.97 1649.54L1585.48 1658.9C1582.97 1660.42 1579.76 1660.11 1577.58 1658.15L1554.98 1637.82C1553.76 1636.72 1552.18 1636.11 1550.53 1636.11L1544.5 1636.11L1524.88 1636.11L1500.4 1636.11C1495.19 1636.11 1492 1630.38 1494.74 1625.95L1494.74 1625.95C1495.39 1624.9 1495.74 1623.68 1495.74 1622.45L1495.74 1542.51L1495.74 1532.68C1495.74 1530.86 1494.99 1529.12 1493.67 1527.86L1488.55 1522.99C1488.49 1522.93 1488.42 1522.87 1488.35 1522.81L1480.53 1515.96C1479.84 1515.36 1479.04 1514.91 1478.17 1514.63L1471.15 1512.39C1470 1512.02 1468.78 1511.97 1467.6 1512.25L1456.42 1514.87C1455.92 1514.99 1455.41 1515.05 1454.9 1515.05L1450.06 1515.05C1448.89 1515.05 1447.74 1514.74 1446.73 1514.16L1443.8 1512.47C1443.06 1512.04 1442.41 1511.48 1441.89 1510.81L1437.19 1504.81C1436.27 1503.64 1435.77 1502.19 1435.77 1500.71L1435.77 1500.4C1435.77 1497.73 1437.36 1495.32 1439.82 1494.27L1446.88 1491.27C1447.8 1490.88 1448.62 1490.29 1449.28 1489.54L1454.01 1484.15C1455.08 1482.94 1455.67 1481.38 1455.67 1479.76L1455.67 1478.03C1455.67 1475.94 1456.66 1473.96 1458.33 1472.7L1461.38 1470.43Z" fill="none" opacity="1" stroke="#000000" stroke-linecap="butt" stroke-linejoin="round" stroke-width="5.07055" vectornator:layerName="akita"/>
</g>
<g id="aomori" vectornator:layerName="aomori">
<path d="M1583.99 1245.02C1580.81 1245.02 1577.76 1243.77 1575.49 1241.54L1568.34 1234.51C1563.44 1229.69 1563.53 1221.76 1568.53 1217.05L1575.53 1210.46C1577.78 1208.34 1580.75 1207.16 1583.84 1207.16L1616.18 1207.16C1622.88 1207.16 1628.3 1212.59 1628.3 1219.28L1628.3 1306.23C1628.3 1309.52 1629.64 1312.67 1632.01 1314.95L1655.62 1337.73C1660.35 1342.29 1660.58 1349.8 1656.13 1354.64L1618.59 1395.55C1614.63 1399.87 1608.14 1400.73 1603.18 1397.6L1584.86 1386.01C1581.24 1383.72 1576.69 1383.51 1572.88 1385.45L1553.41 1395.36C1551.71 1396.22 1549.82 1396.67 1547.91 1396.67L1466.76 1396.67C1464.07 1396.67 1461.46 1395.78 1459.34 1394.13L1454.39 1390.3C1448.84 1385.99 1448.1 1377.86 1452.8 1372.63L1487.41 1334.05C1489.41 1331.82 1490.51 1328.94 1490.51 1325.96L1490.51 1263.86C1490.51 1257.16 1495.94 1251.74 1502.63 1251.74L1509.36 1251.74C1516.06 1251.74 1521.48 1257.16 1521.48 1263.86L1521.48 1284.13C1521.48 1287.14 1522.6 1290.04 1524.62 1292.27L1552.57 1323.1C1556.51 1327.44 1562.98 1328.35 1567.95 1325.25L1570.87 1323.44C1571.97 1322.75 1572.96 1321.9 1573.78 1320.9L1608.94 1278.69C1610.75 1276.51 1611.74 1273.77 1611.74 1270.94L1611.74 1261.14C1611.74 1255.61 1607.99 1250.78 1602.63 1249.4L1587 1245.4C1586.01 1245.15 1585 1245.02 1583.99 1245.02L1583.99 1245.02Z" fill="none" opacity="1" stroke="#000000" stroke-linecap="butt" stroke-linejoin="round" stroke-width="5.07055" vectornator:layerName="aomori"/>
</g>
<g id="iwate" vectornator:layerName="iwate">
<path d="M1663.16 1373.18C1669.14 1367.13 1678.91 1367.13 1684.89 1373.18L1762.37 1451.5C1765.2 1454.36 1766.79 1458.22 1766.79 1462.25L1766.79 1614.1C1766.79 1618.52 1764.88 1622.72 1761.55 1625.62L1724.72 1657.69C1721.94 1660.12 1718.37 1661.45 1714.68 1661.45L1678.86 1661.45C1675.71 1661.45 1672.64 1660.48 1670.06 1658.67L1651.05 1645.29C1648.47 1643.47 1645.4 1642.5 1642.25 1642.5L1634.45 1642.5C1626 1642.5 1619.16 1635.66 1619.16 1627.21L1619.16 1627.21C1619.16 1623.26 1617.63 1619.46 1614.89 1616.61L1585.52 1586.09C1582.78 1583.24 1581.25 1579.44 1581.25 1575.49L1581.25 1462.25C1581.25 1458.22 1582.84 1454.36 1585.67 1451.5L1663.16 1373.18Z" fill="none" opacity="1" stroke="#000000" stroke-linecap="butt" stroke-linejoin="round" stroke-width="5.07055" vectornator:layerName="iwate"/>
</g>
<g id="miyagi" vectornator:layerName="miyagi">
<path d="M1653.25 1781.05C1654.24 1776.46 1659.11 1772.45 1661.97 1768.81C1668.96 1759.92 1677.01 1751.05 1686.45 1744.76C1690.07 1742.35 1693.82 1739.28 1697.95 1737.74C1705.04 1735.08 1714.81 1737.1 1722.21 1737.1C1723.87 1737.1 1729.56 1736.97 1729.24 1734.76C1729.02 1733.21 1725.28 1732.07 1724.13 1730.92C1721.19 1727.98 1718.65 1723.5 1717.11 1719.64C1714.84 1713.97 1716.37 1707.67 1715.83 1701.76C1715.48 1697.95 1714.6 1694.06 1714.13 1690.27C1713.72 1686.99 1714.52 1681.34 1711.57 1678.98C1705.36 1674.02 1696.15 1677.96 1689.01 1677.07C1687.86 1676.92 1686.73 1676.13 1685.6 1675.79C1681.09 1674.44 1676.29 1673.72 1671.76 1672.81C1670.31 1672.52 1669.1 1670.64 1667.72 1670.04C1659.45 1666.5 1652.8 1660.25 1644.3 1657.06C1631.77 1652.36 1614.99 1656.88 1604.92 1664.93C1601.62 1667.58 1599.55 1671.05 1597.47 1674.51C1596.51 1676.12 1595.32 1677.58 1594.71 1679.41C1593.72 1682.37 1592.66 1685.3 1592.15 1688.35C1591.92 1689.74 1592.35 1691.27 1592.58 1692.61C1593.28 1696.82 1593.25 1701.15 1593.85 1705.38C1594.38 1709.06 1593.48 1712.96 1593.85 1716.66C1594.37 1721.85 1595.3 1727.02 1595.77 1732.2C1596.16 1736.52 1595.77 1741.06 1595.77 1745.4C1595.77 1747.35 1596.16 1749.45 1595.98 1751.36C1595.81 1753.26 1594.92 1755.01 1594.71 1756.89C1594.36 1760.04 1595.48 1763.11 1595.13 1766.26C1594.52 1771.73 1592.82 1777.25 1590.87 1782.44C1588.7 1788.25 1587.29 1795.22 1583.21 1800.11C1576.94 1807.63 1566.27 1816.18 1570.65 1827.14C1571.4 1829.01 1576.33 1831.56 1578.1 1832.89C1590.97 1842.54 1605.87 1829.67 1620.04 1832.04C1627.55 1833.29 1641.98 1839.68 1648.35 1833.31C1651.43 1830.23 1651.47 1820.93 1651.97 1816.92C1653.44 1805.12 1650.73 1792.67 1653.25 1781.05Z" fill="none" opacity="1" stroke="#000000" stroke-linecap="round" stroke-linejoin="round" stroke-width="5.07055" vectornator:layerName="miyagi"/>
</g>
<g id="niigata" vectornator:layerName="niigata">
<path d="M1449.69 1758.72C1449.71 1758.82 1449.73 1758.78 1449.75 1758.88C1449.62 1758.87 1449.52 1758.8 1449.38 1758.84C1447.44 1759.42 1452.51 1781.29 1450.47 1780.62C1450.89 1785.36 1451.22 1790.11 1451.22 1794.84C1451.22 1802.93 1451.99 1811.72 1450.03 1819.56C1446.64 1833.12 1433.79 1842.2 1423.56 1850.72C1412.06 1860.3 1400.07 1870.12 1389.47 1880.72C1383.88 1886.31 1379.66 1894.08 1373.59 1898.94C1364.75 1906.01 1353.05 1915.53 1347.12 1925.41C1344.07 1930.5 1343.28 1936.62 1340.66 1941.88C1338.66 1945.88 1336.58 1950.49 1335.34 1954.81C1333.52 1961.21 1332.17 1967.1 1327.72 1972.44C1313.28 1989.76 1292.48 2000.02 1276.53 2015.97C1272.92 2019.58 1270.31 2024.33 1267.12 2028.31C1263.49 2032.85 1258.87 2036.59 1255.38 2041.25C1253.34 2043.97 1251.3 2047.7 1248.91 2050.09C1247.29 2051.71 1245.55 2053.87 1244.78 2056.56C1243.5 2061.04 1239.19 2070.2 1244.78 2073C1250.99 2076.1 1259.66 2075.37 1266.53 2075.38C1278.74 2075.38 1292.09 2074.86 1302.41 2067.12C1309.4 2061.88 1314.48 2053.89 1320.66 2047.72C1327.62 2040.76 1337.06 2039.52 1345.34 2035.38C1347.59 2034.25 1349.15 2031.22 1351.81 2030.69C1359.04 2029.24 1367.4 2032.8 1371.81 2038.31C1377.27 2045.13 1379.48 2060.07 1391.22 2057.72C1393.18 2057.33 1394.66 2054.31 1395.94 2053.03C1398.22 2050.74 1399.6 2047.58 1401.81 2045.38C1404.01 2043.17 1406.75 2041.63 1408.88 2039.5C1409.47 2038.9 1411.24 2038.66 1411.81 2038.31C1417.36 2034.98 1422.18 2031.35 1428.28 2028.91C1429.69 2028.34 1430.34 2026.93 1431.81 2026.56C1437.76 2025.08 1443.36 2024.68 1445.91 2018.31C1446.39 2017.1 1446.94 2015.55 1446.5 2014.22C1445.66 2011.69 1442.23 2010.24 1440.62 2008.31C1437.14 2004.13 1433.39 1999.85 1430.03 1995.38C1420.99 1983.32 1417.72 1964.63 1420.62 1950.09C1421.52 1945.61 1432.33 1935.77 1437.09 1934.81C1440 1934.23 1443.09 1934.33 1445.91 1933.62C1449.04 1932.84 1451.11 1930.78 1453.56 1928.94C1459.72 1924.32 1465.79 1920.95 1469.44 1913.66C1474.92 1902.69 1472.04 1890.75 1477.66 1879.53C1479.37 1876.09 1484.72 1870.98 1482.97 1866.59C1481.95 1864.05 1478.22 1861.69 1476.5 1859.53C1472.73 1854.81 1469.6 1848.04 1470.62 1841.91C1471.16 1838.68 1473.62 1835.72 1474.16 1832.5C1474.93 1827.86 1475.1 1823.23 1477.66 1818.97C1481.6 1812.4 1486.99 1805.6 1485.31 1797.19C1484.9 1795.14 1482.89 1792.98 1481.78 1791.31C1476.6 1783.53 1476.31 1783.79 1469.44 1778.31C1469.32 1779.1 1452.69 1761.29 1450.81 1759.84C1450.62 1759.32 1450.33 1758.95 1449.84 1758.88C1449.84 1758.88 1449.69 1758.71 1449.69 1758.72ZM1314.88 1808.91C1312.19 1808.56 1309.49 1810.98 1307.72 1812.75C1302.4 1818.07 1299.13 1826.97 1297.91 1834.31C1296.49 1842.82 1298.48 1851.73 1297.41 1860.28C1296.2 1869.9 1290.37 1885.2 1297.41 1892.38C1300.51 1895.53 1305.25 1885.89 1308.69 1883.31C1319.02 1875.56 1323.36 1867.77 1325.84 1855.38C1326.89 1850.14 1324.88 1844.8 1324.88 1839.72C1324.88 1829.32 1325.25 1818.06 1317.5 1810.31C1316.65 1809.46 1315.77 1809.02 1314.88 1808.91Z" fill="#bfbfbf" fill-rule="nonzero" opacity="1" stroke="#000000" stroke-linecap="round" stroke-linejoin="round" stroke-width="5.07055" vectornator:layerName="niigata"/>
</g>
<g id="yamagata" vectornator:layerName="yamagata">
<path d="M1461.36 1754.25C1461.33 1753.02 1459.26 1753.06 1458.33 1752.29C1455.48 1749.91 1452.2 1745.06 1452.97 1741.21C1453.94 1736.35 1462.77 1731.94 1466.55 1729.42C1473.69 1724.66 1479.2 1718.73 1480.48 1709.77C1481.74 1700.92 1481.36 1691.82 1482.62 1682.97C1483.14 1679.35 1484.51 1675.22 1484.05 1671.54C1483.18 1664.53 1482.29 1653.12 1488.7 1648.32C1497.23 1641.92 1509.25 1644.95 1518.71 1646.53C1524 1647.41 1529.78 1645.1 1535.14 1646.17C1543.21 1647.79 1551.56 1650.72 1558.37 1655.82C1561.76 1658.36 1564.66 1662.88 1567.3 1666.18C1570.47 1670.15 1574.98 1673.05 1576.95 1677.97C1578.43 1681.69 1577.99 1684.84 1578.38 1688.69C1579.31 1698.03 1577.95 1707.56 1578.73 1716.92C1580.05 1732.69 1585.65 1749 1583.02 1764.79C1582.13 1770.12 1581.99 1775.43 1579.45 1780.51C1576.26 1786.9 1572.2 1792.09 1568.02 1797.66C1563.42 1803.79 1557.03 1807.34 1554.8 1815.17C1551.13 1828 1568.83 1834.87 1564.44 1848.04C1562.48 1853.93 1553.68 1859.41 1548.01 1860.55C1544.53 1861.24 1541.62 1864.38 1538 1864.83C1527.12 1866.19 1514.89 1865.5 1504.42 1863.4C1500.85 1862.69 1496.47 1862.18 1493.34 1859.83C1491.07 1858.13 1488.57 1854.54 1486.91 1852.33C1482.42 1846.34 1487.52 1837.86 1490.48 1832.68C1491.83 1830.33 1492.53 1827.31 1494.06 1825.18C1499.36 1817.75 1508.65 1801.42 1505.49 1791.95C1502.98 1784.42 1498.56 1782.83 1492.98 1778.37C1486.81 1773.43 1480.42 1769.54 1473.69 1765.51C1471.36 1764.11 1468.49 1762.81 1466.55 1760.86C1465.57 1759.88 1465.24 1758.05 1464.4 1756.93C1463.44 1755.65 1461.41 1755.88 1461.36 1754.25Z" fill="#8d93ad" fill-rule="nonzero" opacity="1" stroke="#000000" stroke-linecap="round" stroke-linejoin="round" stroke-width="5.07055" vectornator:layerName="yamagata"/>
</g>
<g id="saitama" vectornator:layerName="saitama">
<path d="M1424.58 2233.15C1410.41 2218.1 1430.13 2207.62 1440.18 2197.16C1453.39 2183.43 1465.73 2168.81 1484.83 2164.17C1491.7 2162.5 1502.66 2166.34 1509.88 2166.67C1519.08 2167.08 1533.58 2164.37 1538.53 2175.5C1543.16 2185.93 1543.94 2198.61 1543.63 2210.01C1543.53 2213.5 1545.88 2219.86 1542.91 2222.57C1539.66 2225.54 1529.5 2223.03 1525.52 2222.85C1507.5 2222.03 1489.25 2222.84 1471.22 2221.6C1462.86 2221.02 1451.44 2231.02 1446.51 2237.01C1444.43 2239.53 1441.61 2244.6 1437.69 2244.02C1436.96 2243.91 1434.04 2240.69 1433.08 2240.07C1430.02 2238.07 1427.22 2235.95 1424.58 2233.15Z" fill="#3d2e20" fill-rule="nonzero" opacity="1" stroke="#000000" stroke-linecap="round" stroke-linejoin="round" stroke-width="5.07055" vectornator:layerName="saitama"/>
</g>
<g id="hyogo" vectornator:layerName="hyogo">
<path d="M840.875 2341.41C836.73 2341.63 833.709 2342.06 827.656 2343.44C819.994 2345.18 808.199 2343.37 800.344 2342.06C799.739 2341.96 797.399 2341.7 797.25 2342.59C796.791 2345.34 805.945 2351.41 807.844 2353.19C816.179 2361 829.074 2372.91 827.031 2385.16C825.645 2393.47 817.099 2398.05 812.562 2404.28C797.578 2424.88 778.495 2433.89 787.312 2462.56C789.329 2469.12 792.29 2476.72 798.844 2480.19C807.812 2484.94 823.699 2483.87 833.719 2484.94C844.066 2486.04 854.266 2484.57 864.625 2484.81C884.789 2485.28 914.266 2492.17 932.656 2482.22C942.459 2476.92 939.172 2450.07 935.312 2441.88C931.88 2434.59 905.975 2409.32 898.719 2406.28C890.32 2402.77 877.839 2407.38 871.281 2399.25C859.017 2384.05 878.619 2378.24 877.781 2369.97C876.502 2357.34 853.149 2340.75 840.875 2341.41ZM886.719 2527.16C882.795 2528.09 850.846 2552.88 849.812 2559.28C848.783 2565.67 860.824 2574.93 866.156 2576.59C881.906 2581.5 875.393 2560.73 881.625 2554.44C884.485 2551.55 892.377 2549.67 893.094 2545.22C893.859 2540.48 892.631 2525.74 886.719 2527.16Z" fill="none" opacity="1" stroke="#000000" stroke-linecap="round" stroke-linejoin="round" stroke-width="5.07055" vectornator:layerName="hyogo"/>
</g>
<g id="nagano" vectornator:layerName="nagano">
<path d="M1242.04 2282.33C1237.58 2282.66 1217.8 2263.51 1218.34 2258.48C1219.44 2248.22 1233.12 2240.58 1235.76 2230.18C1238.12 2220.87 1232.88 2208.93 1232.91 2199.71C1232.99 2175.28 1225.21 2127.15 1237.19 2105.96C1249.88 2083.51 1286.24 2096.78 1305.16 2085.52C1310.9 2082.1 1318.23 2077.67 1323.14 2073.23C1329.13 2067.82 1339.83 2045.31 1350.88 2049.86C1355.62 2051.81 1371.48 2064.3 1370.86 2070.12C1370.58 2072.72 1351.45 2096.32 1348.3 2100.42C1345.04 2104.68 1334.59 2110.94 1336.98 2117.71C1340.6 2127.95 1353.45 2140.59 1360.57 2148.48C1372.22 2161.38 1374.56 2175.91 1379.15 2191.19C1381.59 2199.31 1393.27 2209.81 1390.95 2218.97C1385.75 2239.47 1351.02 2218.58 1342.34 2234.73C1332.64 2252.77 1338.01 2274.47 1337.94 2293.76C1337.85 2321.16 1320.48 2345.05 1295.16 2355.61C1287.87 2358.65 1261.09 2367.3 1254.28 2360.45C1250.24 2356.38 1255.66 2343.79 1255.68 2338C1255.73 2323.76 1249.66 2295.14 1242.04 2282.33Z" fill="#ff8001" fill-rule="nonzero" opacity="1" stroke="#000000" stroke-linecap="round" stroke-linejoin="round" stroke-width="5.07055" vectornator:layerName="nagano"/>
</g>
<g id="shiga" vectornator:layerName="shiga">
<path d="M1000.75 2441.14C994.718 2431.77 999.695 2418.93 999.214 2408.5C998.788 2399.26 994.334 2386.14 997.552 2377.06C1002.31 2363.65 1015.83 2354.37 1026.13 2345.49C1030.49 2341.74 1040.52 2325.27 1046.58 2325.62C1057.04 2326.22 1064.16 2342.78 1070.38 2349.75C1079.68 2360.17 1071.88 2376.5 1073.4 2388.79C1074.28 2395.92 1072.38 2403.17 1073.71 2410.41C1075.3 2419.08 1079.15 2429.68 1077.34 2438.69C1074.92 2450.7 1060.59 2446.56 1051.95 2448.9C1043.3 2451.25 1039.48 2460.74 1031.34 2464.08C1026.52 2466.05 1003.81 2445.89 1000.75 2441.14Z" fill="none" opacity="1" stroke="#000000" stroke-linecap="round" stroke-linejoin="round" stroke-width="5.07055" vectornator:layerName="shiga"/>
</g>
<g id="fukushima" vectornator:layerName="fukushima">
<path d="M1437.96 1980.17C1435.55 1974.28 1432.94 1957.13 1436.78 1951.38C1440.41 1945.93 1451.58 1949.45 1456.98 1948.68C1467.41 1947.19 1475.14 1940.54 1481.56 1932.52C1492.18 1919.25 1485.27 1895.22 1493.68 1884.71C1495.41 1882.55 1537.96 1880.38 1545.2 1877.97C1563.88 1871.75 1575.28 1853.26 1594.7 1850.02C1610.33 1847.42 1636.73 1845.02 1652.61 1847.67C1660.79 1849.03 1665.53 1857.37 1671.81 1861.14C1677.56 1864.59 1686.95 1866.84 1689.65 1873.59C1694.33 1885.29 1694.06 1901.01 1692.01 1913.33C1689.05 1931.08 1692.35 1951.66 1692.35 1969.56C1692.35 1983.79 1696.32 1993.11 1686.96 2005.59C1676.73 2019.23 1660.09 2012.64 1646.55 2015.35C1641.54 2016.36 1623.18 2027.44 1621.97 2027.14C1617.63 2026.05 1614.8 2020.64 1611.87 2017.71C1602.76 2008.6 1593.92 1999.08 1584.93 1990.1C1576.69 1981.86 1572.58 1971.71 1559.68 1969.56C1530 1964.61 1506.66 2029.6 1474.15 2023.1C1471.96 2022.66 1467.02 2024.58 1465.4 2023.77C1462.04 2022.09 1461.83 2008.33 1460.68 2004.91C1457.61 1995.69 1441.82 1989.62 1437.96 1980.17Z" fill="none" opacity="1" stroke="#000000" stroke-linecap="round" stroke-linejoin="round" stroke-width="5.07055" vectornator:layerName="fukushima"/>
</g>
<g id="tochigi" vectornator:layerName="tochigi">
<path d="M1469.35 2036.88C1479.62 2039.69 1489.59 2059.57 1489.59 2068.44C1489.59 2100.44 1491.6 2113.47 1516.56 2134.27C1519.75 2136.92 1525.22 2142.56 1529.51 2143.17C1543.41 2145.15 1552.4 2125.28 1559.73 2116.73C1565.76 2109.7 1575.66 2106.52 1581.31 2099.74C1603.42 2073.2 1595.01 2058.32 1591.02 2026.36C1589.86 2017.12 1562.67 1983.02 1553.52 1984.55C1548.09 1985.45 1543.11 1992.65 1539.76 1996.42C1529.88 2007.53 1519.49 2017.49 1508.2 2026.9C1502.38 2031.75 1493.32 2035.9 1485.81 2037.15C1482.31 2037.74 1466.24 2036.03 1469.35 2036.88Z" fill="#ff0241" fill-rule="nonzero" opacity="1" stroke="#000000" stroke-linecap="round" stroke-linejoin="round" stroke-width="5.07055" vectornator:layerName="tochigi"/>
</g>
<g id="ibaraki" vectornator:layerName="ibaraki">
<path d="M1553.97 2170.14C1553.45 2167.77 1550.26 2167.01 1548.25 2165.66C1545.25 2163.67 1539.24 2158.35 1542.16 2153.49C1545.93 2147.19 1557.71 2143.47 1563.29 2138.45C1579.52 2123.83 1602.27 2107.45 1609.48 2085.8C1613.42 2074 1610.56 2062.13 1610.56 2049.99C1610.56 2046.14 1611.66 2041.57 1610.91 2037.82C1610.6 2036.26 1608.41 2032.45 1609.84 2033.16C1615.9 2036.19 1619.32 2042.12 1627.39 2042.12C1635.13 2042.12 1635.83 2023.72 1654.96 2028.51C1656.63 2028.93 1660.92 2028.02 1662.12 2029.22C1663.13 2030.23 1660.48 2034.5 1659.97 2035.67C1657.75 2040.86 1658.54 2046.99 1658.54 2052.5C1658.54 2077.46 1651.86 2103.35 1654.6 2128.06C1656.56 2145.64 1667.92 2166.99 1683.61 2176.4C1689.04 2179.66 1693.72 2186.88 1698.29 2191.45C1699.48 2192.64 1701.87 2195.03 1701.87 2195.03C1701.87 2195.03 1699.01 2194.55 1697.57 2194.31C1693.4 2193.61 1690.87 2189.35 1687.19 2187.51C1677.44 2182.63 1665.72 2178.95 1654.6 2180.34C1647.72 2181.2 1635.93 2180.66 1629.89 2184.28C1623.32 2188.23 1618.92 2198.63 1609.84 2196.82C1597.19 2194.29 1587.38 2179.78 1575.1 2175.69C1569.22 2173.73 1555.38 2176.48 1553.97 2170.14Z" fill="#96c67d" fill-rule="nonzero" opacity="1" stroke="#000000" stroke-linecap="round" stroke-linejoin="round" stroke-width="5.07055" vectornator:layerName="ibaraki"/>
</g>
<g id="chiba" vectornator:layerName="chiba">
<path d="M1565.69 2189.34C1564.85 2189.37 1564.01 2189.48 1563.19 2189.69C1556.29 2191.41 1560.41 2223.81 1561.88 2227.22C1561.94 2227.38 1562.34 2227.21 1562.38 2227.38C1567.09 2250.18 1623.03 2226.79 1618.19 2255.84C1615.66 2271.02 1598.92 2274.43 1590.53 2284.5C1585.15 2290.96 1583.91 2310.86 1583.28 2319.06C1582.78 2325.56 1583.4 2372.56 1594.16 2370.41C1611.57 2366.92 1654.96 2318.59 1657.69 2302.25C1660.61 2284.72 1654.6 2267.82 1661.62 2250.25C1666.43 2238.24 1707.3 2214.47 1686.31 2201.88C1675.89 2195.62 1639.54 2195.1 1628.38 2199.56C1619.86 2202.97 1616.32 2211.58 1605.34 2209.75C1592.52 2207.61 1578.26 2188.96 1565.69 2189.34Z" fill="#de1919" fill-rule="nonzero" opacity="1" stroke="#000000" stroke-linecap="round" stroke-linejoin="round" stroke-width="5.07055" vectornator:layerName="chiba"/>
</g>
<g id="gunma" vectornator:layerName="gunma">
<path d="M1405.44 2208.4C1405.06 2208.36 1405.52 2208.71 1404.82 2208.96C1400.36 2210.52 1396.04 2201.44 1395.76 2198.34C1394.94 2189.46 1398.87 2177.41 1396.46 2169.3C1391.62 2153.01 1352.57 2133.63 1353.55 2120.34C1354.38 2109.11 1367.53 2101.1 1375.43 2094.41C1385.29 2086.06 1394.25 2076.26 1403.99 2067.86C1416.96 2056.67 1426.57 2032.33 1448.5 2038.84C1480.74 2048.43 1469.81 2088.84 1479.24 2113.18C1483.01 2122.9 1493.45 2132.71 1501.17 2139.13C1502.42 2140.17 1513.03 2149.43 1512.9 2149.51C1507.26 2153.01 1497.75 2149.15 1491.46 2150.8C1478.54 2154.19 1466.64 2156.48 1455.23 2163.56C1440.21 2172.88 1431.98 2190.21 1418.18 2200.32C1416.58 2201.49 1406.8 2208.53 1405.44 2208.4Z" fill="none" opacity="1" stroke="#000000" stroke-linecap="round" stroke-linejoin="round" stroke-width="5.07055" vectornator:layerName="gunma"/>
</g>
<g id="tokyo" vectornator:layerName="tokyo">
<path d="M1473.59 2238.15C1475.14 2237.46 1460.72 2235.53 1461.88 2244.43C1462.45 2248.79 1471.66 2252.67 1475.03 2253.84C1496.52 2261.31 1518.84 2257.05 1540.56 2255.9C1544.58 2255.69 1558.58 2249.98 1558.55 2244.85C1558.52 2239.48 1548.17 2238.12 1544.17 2237.34C1528.42 2234.27 1511.26 2241.63 1495.56 2238.57C1491.04 2237.69 1485.18 2237.05 1480.47 2236.92C1478.78 2236.87 1471.83 2238.93 1473.59 2238.15Z" fill="#ff99dd" fill-rule="nonzero" opacity="1" stroke="#000000" stroke-linecap="round" stroke-linejoin="round" stroke-width="5.07055" vectornator:layerName="tokyo"/>
</g>
<g id="kanagawa" vectornator:layerName="kanagawa">
<path d="M1479.29 2340.16C1470.81 2340.03 1446.38 2317.57 1446.78 2308.04C1447.04 2301.88 1453.74 2296.33 1457.72 2292.31C1462.84 2287.13 1468.68 2280.21 1475.41 2276.91C1485.5 2271.97 1500.83 2275.07 1511.94 2273.74C1519.45 2272.84 1531.22 2268.7 1538.43 2271.79C1544.94 2274.58 1545.1 2288.68 1547.3 2294.72C1550.62 2303.86 1566.46 2310.16 1553.76 2319.96C1551.32 2321.84 1548.47 2324.94 1545.17 2324.96C1534.6 2325.02 1531.9 2310.97 1521.62 2310.54C1508.8 2310 1492.82 2340.38 1479.29 2340.16Z" fill="#efef90" fill-rule="nonzero" opacity="1" stroke="#000000" stroke-linecap="round" stroke-linejoin="round" stroke-width="5.07055" vectornator:layerName="kanagawa"/>
</g>
<g id="yamanashi" vectornator:layerName="yamanashi">
<path d="M1356.18 2312.89C1350.86 2297.06 1355.97 2279.13 1355.84 2262.83C1355.82 2259.15 1354.69 2248.7 1358.16 2246.58C1367.27 2241.01 1380.26 2248.35 1390.03 2245.3C1396.46 2243.29 1398.71 2233.74 1406.34 2234.04C1416.66 2234.45 1417.74 2247.22 1425.75 2250.94C1429.73 2252.79 1433.17 2255.72 1437.84 2256.17C1446.92 2257.04 1457.58 2253.18 1461.15 2264.57C1465.85 2279.61 1428.88 2301.25 1416.47 2300.75C1410.47 2300.51 1400.95 2298.23 1396.07 2303.19C1389.44 2309.92 1390.92 2326.95 1390.29 2335.65C1390.14 2337.8 1391.21 2342.17 1389.65 2344.02C1387.27 2346.84 1382.31 2338.87 1380.64 2337.46C1375.31 2332.97 1358.17 2318.81 1356.18 2312.89Z" fill="#268309" fill-rule="nonzero" opacity="1" stroke="#000000" stroke-linecap="round" stroke-linejoin="round" stroke-width="5.07055" vectornator:layerName="yamanashi"/>
</g>
<g id="toyama" vectornator:layerName="toyama">
<path d="M1129.2 2139.96C1129.11 2137.85 1129.63 2130.75 1129.86 2128.46C1130.95 2117.55 1128.37 2106.69 1129.21 2095.75C1129.37 2093.67 1129.87 2085.22 1132.73 2084.58C1137.73 2083.45 1141.79 2090.83 1144.89 2093.47C1151.67 2099.24 1166.67 2106.78 1175.76 2102.36C1192.61 2094.16 1184.64 2071.2 1192.54 2067.55C1199.58 2064.3 1227.36 2063.94 1232.39 2072.25C1240.98 2086.46 1226.35 2095.69 1223.03 2109.15C1220.14 2120.85 1221.24 2133.33 1221.28 2145.36C1221.29 2148.75 1222.96 2156.68 1219.21 2158.95C1207.66 2165.93 1185.36 2157.4 1170.82 2161.88C1159.47 2165.37 1154.84 2182.81 1141.56 2183.88C1129.37 2184.85 1129.51 2147.48 1129.2 2139.96Z" fill="none" opacity="1" stroke="#000000" stroke-linecap="round" stroke-linejoin="round" stroke-width="5.07055" vectornator:layerName="toyama"/>
</g>
<g id="Ishikawa" vectornator:layerName="Ishikawa">
<path d="M1052.53 2179.51C1044.56 2177.7 1065.04 2159.83 1066.8 2158.58C1080.34 2148.92 1096.27 2133.63 1097.68 2115.8C1098.56 2104.68 1099.98 2094.13 1095.91 2083.55C1091.27 2071.48 1078.57 2061.21 1079.68 2047.18C1081.52 2023.94 1105.22 2006.52 1120.45 1991.6C1130.73 1981.52 1150.46 1956.85 1167.67 1970.13C1173.04 1974.27 1164.36 1984.19 1161.3 1987.06C1154.05 1993.86 1121.14 2019.81 1122.16 2029.57C1123.21 2039.63 1134.99 2046.71 1133.63 2058.85C1132.18 2071.85 1121.76 2075.78 1116.82 2086.88C1113.87 2093.52 1114.87 2101.61 1114.32 2108.55C1111.73 2141.15 1125.37 2179.37 1111.19 2211.26C1109.74 2214.52 1098.5 2225.55 1094.91 2222.78C1086.48 2216.28 1081.71 2202.38 1072.09 2194.96C1068.89 2192.49 1054.83 2180.04 1052.53 2179.51Z" fill="none" opacity="1" stroke="#000000" stroke-linecap="round" stroke-linejoin="round" stroke-width="5.07055" vectornator:layerName="ishikawa"/>
</g>
<g id="aichi" vectornator:layerName="aichi">
<path d="M1130.8 2394.9C1131.27 2389.26 1141.2 2383.26 1145.23 2379.86C1152.55 2373.67 1164.97 2359.55 1176.36 2363.66C1188.96 2368.21 1197.74 2382.33 1212.8 2381.45C1228 2380.57 1243.06 2377.48 1258.24 2376.59C1260.86 2376.44 1278.55 2373.19 1278.39 2374.31C1278.28 2375.09 1248.94 2402.6 1245.34 2408.32C1232.69 2428.4 1244.07 2479.56 1215.3 2481.24C1211.2 2481.48 1206.2 2484.22 1202.11 2482.74C1195.26 2480.27 1221.56 2466.27 1209.56 2458.71C1199.07 2452.1 1183.4 2460.84 1172.85 2455.32C1158.24 2447.67 1164.42 2431.58 1155.28 2419.47C1152.56 2415.87 1130.8 2394.91 1130.8 2394.9Z" fill="none" opacity="1" stroke="#000000" stroke-linecap="round" stroke-linejoin="round" stroke-width="5.07055" vectornator:layerName="aichi"/>
</g>
<g id="shizuoka" vectornator:layerName="shizuoka">
<path d="M1356.68 2459.51C1345.97 2464.46 1325.68 2462.04 1314.02 2461.78C1302.37 2461.52 1258.56 2465.35 1250.94 2458.56C1248.98 2456.81 1252.25 2421.93 1254.83 2418.1C1271.24 2393.74 1296.63 2370.96 1318.6 2351.62C1326.02 2345.09 1336.01 2332.03 1345.86 2329.63C1356.26 2327.09 1374.67 2364.96 1394.01 2360.69C1419.42 2355.09 1385.08 2300.23 1431.41 2316.08C1443.28 2320.15 1452.02 2336.38 1460.07 2345.2C1469.81 2355.88 1487.77 2360.47 1494.24 2374.48C1498.03 2382.71 1494.45 2387.18 1492.97 2394.98C1489.74 2412 1485.51 2416.79 1473.14 2428.61C1469.41 2432.18 1466.1 2438.41 1461.21 2440.66C1448.99 2446.3 1442.97 2429.84 1443.68 2420.68C1445.25 2400.27 1457.07 2365.95 1430.49 2360.9C1419.59 2358.83 1408.6 2367.99 1402.03 2375.36C1395.14 2383.09 1378.18 2394.79 1376.2 2405.22C1371.91 2427.76 1383.65 2447.06 1356.68 2459.51Z" fill="#029dff" fill-rule="nonzero" opacity="1" stroke="#000000" stroke-linecap="round" stroke-linejoin="round" stroke-width="5.07055" vectornator:layerName="shizuoka"/>
</g>
<g id="fukui" vectornator:layerName="fukui">
<path d="M1015.88 2256.89C1011.98 2249.06 1000.64 2246.54 996.989 2237.64C994.304 2231.09 1003.24 2227.36 1006.58 2224.24C1014.56 2216.77 1032.56 2189.88 1044.05 2189.35C1052.3 2188.97 1056.1 2201.72 1061.19 2205.7C1077.22 2218.2 1087.14 2237.84 1103.93 2249.41C1107.99 2252.21 1120.11 2259.97 1119.8 2265.5C1118.77 2283.49 1081.01 2281.13 1068.08 2287.29C1056.02 2293.04 1049.06 2305.06 1040.02 2314.08C1025.98 2328.07 1011.36 2341.45 997.499 2355.28C992.294 2360.47 962.446 2368.67 958.963 2360.17C957.071 2355.56 985.073 2331.43 989.766 2327.5C1000.93 2318.15 1028.56 2291.03 1029.4 2276.39C1029.93 2266.93 1019.33 2263.81 1015.88 2256.89Z" fill="none" opacity="1" stroke="#000000" stroke-linecap="round" stroke-linejoin="round" stroke-width="5.07055" vectornator:layerName="fukui"/>
</g>
<g id="wakayama" vectornator:layerName="wakayama">
<path d="M912.672 2632.4C912.672 2632.4 912.672 2633.95 912.672 2632.4C912.672 2627.82 912.315 2623.36 912.315 2618.81C912.315 2607.07 910.368 2596 912.672 2584.47C918.176 2556.96 955.433 2545.53 978.833 2549.43C989.97 2551.28 995.187 2561.78 990.276 2571.6C987.572 2577.01 983.013 2580.57 979.548 2585.19C972.78 2594.21 969.329 2619.11 974.541 2629.53C981.281 2643.01 1002.17 2637.57 1013.52 2639.19C1033.49 2642.04 1043.59 2662.34 1038.91 2681.03C1037.88 2685.17 1033.59 2689.54 1031.4 2693.19C1009.87 2729.08 1001.44 2689.36 980.621 2681.03C964.259 2674.49 952.732 2684.5 939.136 2666.37C934.477 2660.16 911.303 2639.24 912.672 2632.4Z" fill="none" opacity="1" stroke="#000000" stroke-linecap="round" stroke-linejoin="round" stroke-width="5.07055" vectornator:layerName="wakayama"/>
</g>
</svg>
