<?xml version="1.0" encoding="UTF-8" standalone="no"?>
<!DOCTYPE svg PUBLIC "-//W3C//DTD SVG 1.1//EN" "http://www.w3.org/Graphics/SVG/1.1/DTD/svg11.dtd">
<!-- Created with Vectornator (http://vectornator.io/) -->
<svg height="100%" stroke-miterlimit="10" style="fill-rule:nonzero;clip-rule:evenodd;stroke-linecap:round;stroke-linejoin:round;" version="1.1" viewBox="0 0 1080 1920" width="100%" xml:space="preserve" xmlns="http://www.w3.org/2000/svg" xmlns:vectornator="http://vectornator.io" xmlns:xlink="http://www.w3.org/1999/xlink">
<defs/>
<g id="nagano" vectornator:layerName="nagano">
<path d="M987.38 768.829C967.665 826.686 922.137 881.581 928.234 942.4C933.155 991.486 997.918 1015.44 1016.68 1061.07C1025.49 1082.5 1009.03 1106.77 1005.21 1129.63C969.675 1128.94 933.04 1136.38 898.614 1127.57C869.261 1120.05 848.238 1092.79 819.861 1082.17C806.581 1077.2 789.012 1074.15 777.322 1082.17C760.337 1093.83 759.343 1120.47 744.016 1134.23C718.049 1157.55 668.843 1158.58 656.075 1191.07C636.284 1241.42 666.941 1300.03 657.888 1353.37C654.508 1373.28 629.052 1382.74 620.444 1401.01C599.75 1444.94 606.802 1505.3 570.908 1538.01C514.943 1589 439.594 1621.07 364.958 1633.8C314.233 1642.45 264.731 1610.44 214.618 1598.75C217.679 1527 247.567 1451.27 223.801 1383.5C193.287 1296.5 115.11 1234.53 60.7647 1160.05C68.8384 1149.96 73.2641 1135.22 84.9857 1129.78C115.942 1115.41 153.217 1118.1 183.792 1102.94C199.568 1095.11 213.264 1080.11 218.828 1063.4C229.483 1031.41 220.944 995.268 230.43 962.911C242.92 920.304 275.746 884.592 284.035 840.972C290.975 804.447 263.611 765.307 274.72 729.828C288.618 685.442 339.658 659.483 354.647 615.454C372.994 561.563 346.594 496.688 371.515 445.505C389.738 408.078 433.851 387.012 472.899 372.585C487.862 367.057 505.09 380.925 516.699 391.865C530.423 404.798 526.722 437.007 545.209 440.729C583.159 448.369 624.795 437.594 659.592 420.631C725.137 388.68 776.564 332.852 840.058 296.997C855.557 288.244 877.902 279.237 892.843 288.913C924.803 309.611 945.029 345.11 964.697 377.714C984.282 410.182 994.557 447.423 1009.49 482.277C949.67 528.041 880.899 564.024 830.036 619.571C810.528 640.875 804.629 674.402 807.218 703.173C808.909 721.96 823.882 741.656 841.605 748.115C887.718 764.92 938.789 761.924 987.38 768.829Z" fill="none" opacity="1" stroke="#d06423" stroke-linecap="round" stroke-linejoin="round" stroke-width="10" vectornator:layerName="Nagano"/>
</g>
</svg>
